<?xml version="1.0" standalone="no"?>
<!DOCTYPE svg PUBLIC "-//W3C//DTD SVG 1.0//EN" "http://www.w3.org/TR/2001/REC-SVG-20010904/DTD/svg10.dtd">
<svg xmlns="http://www.w3.org/2000/svg" xmlns:xlink="http://www.w3.org/1999/xlink" id="body_1" width="1024" height="768">

<g transform="matrix(0.31880447 0 0 0.31880447 33.793274 -0)">
    <path d="M1544 2412C 1029.3334 2412 515.6667 2412 2 2412C 2 1608.6666 2 805.3333 2 2C 1002 2 2002 2 3002 2C 3002 805.3333 3002 1608.6666 3002 2412C 2516.3333 2412 2030.6666 2412 1544 2412zM697.19055 787.9022C 695.3532 787.12775 693.5773 786.1168 691.6676 785.62115C 684.7728 783.8318 682.52423 786.24835 684.2518 793.27563C 685.5819 798.68646 686.8109 804.12274 688.03516 809.5589C 690.0466 818.4903 690.86774 827.8946 694.24646 836.2703C 701.17535 853.44666 706.9228 871.10486 716.5521 887.2478C 725.42285 902.11914 734.8764 916.4737 746.53705 929.1591C 770.513 955.2424 798.94617 974.90594 832.6156 986.627C 834.1324 987.15515 835.30695 988.6664 837.8095 990.64233C 833.6094 991.00366 831.0067 991.2996 828.3956 991.4387C 820.6521 991.85126 813.10114 989.614 805.5931 989.13367C 786.6722 987.92316 767.62195 988.7184 748.6236 988.7476C 744.88226 988.75336 741.206 989.04663 739.79926 993.5882C 767.2206 1059.0035 816.60046 1097.6942 885.2779 1113.4309C 875.2323 1114.1093 865.31335 1113.5967 855.4721 1114.2522C 845.48254 1114.9177 835.36444 1110.4454 824.77185 1114.4248C 826.41595 1117.5548 827.44714 1119.9924 828.8771 1122.1681C 845.6322 1147.6614 864.15216 1171.737 886.0115 1193.1292C 912.1868 1218.745 940.6572 1241.4159 972.08655 1260.2859C 999.3667 1276.6648 1027.9264 1290.4851 1057.7345 1301.542C 1079.4078 1309.5813 1101.6425 1315.9706 1124.408 1320.2188C 1134.1399 1322.0349 1144.3041 1322.1738 1153.7056 1324.975C 1168.2974 1329.3228 1183.2488 1328.1813 1197.9662 1329.3356C 1217.8362 1330.8939 1237.8942 1330.13 1257.8721 1330.2046C 1266.1898 1330.2356 1274.5321 1330.1718 1282.8206 1329.5676C 1289.3676 1329.0902 1293.1335 1332.0121 1296.5775 1337.2196C 1304.4376 1349.1044 1312.7495 1360.6956 1321.0477 1372.2844C 1340.5165 1399.473 1360.1924 1426.5139 1379.5764 1453.7625C 1393.0393 1472.6876 1406.0015 1491.9691 1419.4716 1510.8889C 1432.9119 1529.7665 1446.8024 1548.3228 1460.3179 1567.1476C 1472.6592 1584.3372 1484.7478 1601.708 1496.9955 1618.9652C 1498.144 1620.5836 1499.5358 1622.065 1500.9856 1623.428C 1505.553 1627.7214 1508.5928 1627.3402 1512.2494 1622.0239C 1521.6122 1608.4117 1530.8579 1594.7184 1540.3027 1581.1636C 1549.409 1568.0942 1558.6501 1555.1178 1567.9314 1542.1715C 1581.8057 1522.8191 1595.7803 1503.5387 1609.6879 1484.2101C 1627.0895 1460.0256 1644.5332 1435.8711 1661.8292 1411.6111C 1672.2147 1397.0441 1682.2487 1382.2264 1692.6354 1367.6604C 1701.0745 1355.8258 1709.6934 1344.1138 1718.5199 1332.5671C 1719.8954 1330.7677 1722.8158 1329.1152 1725.0063 1329.1348C 1744.2814 1329.3058 1763.559 1330.3911 1782.8241 1330.1743C 1802.3702 1329.9542 1822.0421 1329.7069 1841.4025 1327.3582C 1859.9722 1325.1052 1878.1525 1319.8086 1896.6127 1316.4468C 1924.1337 1311.435 1950.2991 1302.3729 1975.9021 1291.3754C 2005.7965 1278.5342 2033.9503 1262.6918 2061.1836 1244.839C 2081.2903 1231.6581 2099.3384 1216.173 2117.087 1200.2688C 2140.146 1179.6062 2159.5044 1155.5734 2177.1626 1130.2322C 2180.3276 1125.6902 2185.3145 1121.3297 2184.2273 1113.6707C 2163.5898 1113.6707 2143.2195 1113.6707 2122.849 1113.6707C 2155.8696 1106.2202 2186.0242 1092.7916 2212.629 1071.9266C 2239.4531 1050.8895 2258.5984 1024.1581 2272.0735 990.8569C 2265.9297 989.98615 2261.4978 988.96216 2257.033 988.7902C 2230.4163 987.7657 2203.9128 989.6213 2177.4397 992.1921C 2175.0762 992.4215 2171.9248 993.5191 2170.7969 988.7428C 2198.7305 977.65857 2225.6423 964.3898 2248.3123 944.0019C 2271.2024 923.41583 2289.1848 899.30774 2302.265 871.26166C 2314.93 844.10614 2322.7903 815.8719 2326.8503 786.70776C 2320.864 783.91846 2317.2417 786.5448 2313.5083 788.70447C 2302.9028 794.8396 2292.729 801.9474 2281.5986 806.9071C 2247.738 821.9956 2212.6614 833.8724 2176.7344 842.97437C 2155.9404 848.24243 2134.9026 852.6287 2113.849 856.7755C 2080.0828 863.4264 2046.209 869.53033 2012.3872 875.90106C 1983.1366 881.4107 1953.8163 886.5865 1924.6705 892.60614C 1889.6335 899.8426 1854.5427 906.9825 1820.3563 917.7696C 1803.3044 923.15015 1786.5405 929.4591 1771.9275 939.9565C 1757.931 950.01074 1744.1749 960.58624 1737.8893 977.7554C 1737.4995 978.81964 1736.2672 979.5754 1735.2955 980.6151C 1731.135 974.8454 1727.5183 969.2798 1723.3577 964.1557C 1706.1052 942.9077 1686.2821 924.55225 1663.4595 909.2242C 1640.3711 893.7177 1615.4078 882.3469 1589.0881 874.1355C 1573.1815 869.1728 1557.0597 863.66907 1539.8257 865.2849C 1539.2556 865.3383 1538.6549 864.85345 1538.0463 864.74347C 1532.6299 863.7646 1527.2075 861.9991 1521.7886 862.005C 1504.5411 862.0238 1487.3972 862.4202 1470.1045 864.53864C 1445.5138 867.55115 1421.8622 872.8746 1399.1191 882.41846C 1380.7422 890.1302 1362.8416 898.9572 1346.792 910.8046C 1333.2291 920.8164 1320.233 931.66504 1307.574 942.81116C 1296.5972 952.47614 1287.4617 963.90027 1279.7518 976.4121C 1278.6847 978.14374 1276.7908 979.3659 1275.439 980.6703C 1271.68 974.2347 1269.0525 967.9771 1264.9127 962.9699C 1251.1426 946.3141 1233.7772 934.23157 1213.9021 925.94824C 1193.1072 917.2814 1171.5685 910.78705 1149.5958 905.86414C 1126.2948 900.6437 1102.94 895.6524 1079.5548 890.8212C 1058.1766 886.40454 1036.7561 882.17706 1015.2958 878.1802C 1004.5611 876.18085 993.3988 875.93066 982.9723 872.97565C 972.2909 869.9484 961.2928 869.3605 950.544 866.97864C 935.78516 863.7081 920.76794 861.365 905.9718 857.92706C 883.08813 852.61 859.8949 848.5443 837.1686 842.6531C 810.98016 835.8645 785.0753 827.93176 759.2209 819.9346C 750.71875 817.3047 742.5223 813.3762 734.6036 809.2418C 722.2961 802.816 710.3458 795.7058 697.19055 787.9022z" stroke="none" fill="#000000" fill-rule="nonzero" />
    <path d="M697.71735 788.394C 710.3458 795.7058 722.2961 802.816 734.6036 809.2418C 742.5223 813.3762 750.71875 817.3047 759.2209 819.9346C 785.0753 827.93176 810.98016 835.8645 837.1686 842.6531C 859.8949 848.5443 883.08813 852.61 905.9718 857.92706C 920.76794 861.365 935.78516 863.7081 950.544 866.97864C 961.2928 869.3605 972.2909 869.9484 982.9723 872.97565C 993.3988 875.93066 1004.5611 876.18085 1015.2958 878.1802C 1036.7561 882.17706 1058.1766 886.40454 1079.5548 890.8212C 1102.94 895.6524 1126.2948 900.6437 1149.5958 905.86414C 1171.5685 910.78705 1193.1072 917.2814 1213.9021 925.94824C 1233.7772 934.23157 1251.1426 946.3141 1264.9127 962.9699C 1269.0525 967.9771 1271.68 974.2347 1275.439 980.6703C 1276.7908 979.3659 1278.6847 978.14374 1279.7518 976.4121C 1287.4617 963.90027 1296.5972 952.47614 1307.574 942.81116C 1320.233 931.66504 1333.2291 920.8164 1346.792 910.8046C 1362.8416 898.9572 1380.7422 890.1302 1399.1191 882.41846C 1421.8622 872.8746 1445.5138 867.55115 1470.1045 864.53864C 1487.3972 862.4202 1504.5411 862.0238 1521.7886 862.005C 1527.2075 861.9991 1532.6299 863.7646 1538.0463 864.74347C 1538.6549 864.85345 1539.2556 865.3383 1539.8257 865.2849C 1557.0597 863.66907 1573.1815 869.1728 1589.0881 874.1355C 1615.4078 882.3469 1640.3711 893.7177 1663.4595 909.2242C 1686.2821 924.55225 1706.1052 942.9077 1723.3577 964.1557C 1727.5183 969.2798 1731.135 974.8454 1735.2955 980.6151C 1736.2672 979.5754 1737.4995 978.81964 1737.8893 977.7554C 1744.1749 960.58624 1757.931 950.01074 1771.9275 939.9565C 1786.5405 929.4591 1803.3044 923.15015 1820.3563 917.7696C 1854.5427 906.9825 1889.6335 899.8426 1924.6705 892.60614C 1953.8163 886.5865 1983.1366 881.4107 2012.3872 875.90106C 2046.209 869.53033 2080.0828 863.4264 2113.849 856.7755C 2134.9026 852.6287 2155.9404 848.24243 2176.7344 842.97437C 2212.6614 833.8724 2247.738 821.9956 2281.5986 806.9071C 2292.729 801.9474 2302.9028 794.8396 2313.5083 788.70447C 2317.2417 786.5448 2320.864 783.91846 2326.8503 786.70776C 2322.7903 815.8719 2314.93 844.10614 2302.265 871.26166C 2289.1848 899.30774 2271.2024 923.41583 2248.3123 944.0019C 2225.6423 964.3898 2198.7305 977.65857 2170.7969 988.7428C 2171.9248 993.5191 2175.0762 992.4215 2177.4397 992.1921C 2203.9128 989.6213 2230.4163 987.7657 2257.033 988.7902C 2261.4978 988.96216 2265.9297 989.98615 2272.0735 990.8569C 2258.5984 1024.1581 2239.4531 1050.8895 2212.629 1071.9266C 2186.0242 1092.7916 2155.8696 1106.2202 2122.849 1113.6707C 2143.2195 1113.6707 2163.5898 1113.6707 2184.2273 1113.6707C 2185.3145 1121.3297 2180.3276 1125.6902 2177.1626 1130.2322C 2159.5044 1155.5734 2140.146 1179.6062 2117.087 1200.2688C 2099.3384 1216.173 2081.2903 1231.6581 2061.1836 1244.839C 2033.9503 1262.6918 2005.7965 1278.5342 1975.9021 1291.3754C 1950.2991 1302.3729 1924.1337 1311.435 1896.6127 1316.4468C 1878.1525 1319.8086 1859.9722 1325.1052 1841.4025 1327.3582C 1822.0421 1329.7069 1802.3702 1329.9542 1782.8241 1330.1743C 1763.559 1330.3911 1744.2814 1329.3058 1725.0063 1329.1348C 1722.8158 1329.1152 1719.8954 1330.7677 1718.5199 1332.5671C 1709.6934 1344.1138 1701.0745 1355.8258 1692.6354 1367.6604C 1682.2487 1382.2264 1672.2147 1397.0441 1661.8292 1411.6111C 1644.5332 1435.8711 1627.0895 1460.0256 1609.6879 1484.2101C 1595.7803 1503.5387 1581.8057 1522.8191 1567.9314 1542.1715C 1558.6501 1555.1178 1549.409 1568.0942 1540.3027 1581.1636C 1530.8579 1594.7184 1521.6122 1608.4117 1512.2494 1622.0239C 1508.5928 1627.3402 1505.553 1627.7214 1500.9856 1623.428C 1499.5358 1622.065 1498.144 1620.5836 1496.9955 1618.9652C 1484.7478 1601.708 1472.6592 1584.3372 1460.3179 1567.1476C 1446.8024 1548.3228 1432.9119 1529.7665 1419.4716 1510.8889C 1406.0015 1491.9691 1393.0393 1472.6876 1379.5764 1453.7625C 1360.1924 1426.5139 1340.5165 1399.473 1321.0477 1372.2844C 1312.7495 1360.6956 1304.4376 1349.1044 1296.5775 1337.2196C 1293.1335 1332.0121 1289.3676 1329.0902 1282.8206 1329.5676C 1274.5321 1330.1718 1266.1898 1330.2356 1257.8721 1330.2046C 1237.8942 1330.13 1217.8362 1330.8939 1197.9662 1329.3356C 1183.2488 1328.1813 1168.2974 1329.3228 1153.7056 1324.975C 1144.3041 1322.1738 1134.1399 1322.0349 1124.408 1320.2188C 1101.6425 1315.9706 1079.4078 1309.5813 1057.7345 1301.542C 1027.9264 1290.4851 999.3667 1276.6648 972.08655 1260.2859C 940.6572 1241.4159 912.1868 1218.745 886.0115 1193.1292C 864.15216 1171.737 845.6322 1147.6614 828.8771 1122.1681C 827.44714 1119.9924 826.41595 1117.5548 824.77185 1114.4248C 835.36444 1110.4454 845.48254 1114.9177 855.4721 1114.2522C 865.31335 1113.5967 875.2323 1114.1093 885.2779 1113.4309C 816.60046 1097.6942 767.2206 1059.0035 739.79926 993.5882C 741.206 989.04663 744.88226 988.75336 748.6236 988.7476C 767.62195 988.7184 786.6722 987.92316 805.5931 989.13367C 813.10114 989.614 820.6521 991.85126 828.3956 991.4387C 831.0067 991.2996 833.6094 991.00366 837.8095 990.64233C 835.30695 988.6664 834.1324 987.15515 832.6156 986.627C 798.94617 974.90594 770.513 955.2424 746.53705 929.1591C 734.8764 916.4737 725.42285 902.11914 716.5521 887.2478C 706.9228 871.10486 701.17535 853.44666 694.24646 836.2703C 690.86774 827.8946 690.0466 818.4903 688.03516 809.5589C 686.8109 804.12274 685.5819 798.68646 684.2518 793.27563C 682.52423 786.24835 684.7728 783.8318 691.6676 785.62115C 693.5773 786.1168 695.3532 787.12775 697.71735 788.394zM817.99347 1081.3951C 841.84424 1097.243 868.80676 1105.3872 896.38983 1113.0514C 892.29065 1114.995 888.2783 1116.187 884.242 1116.2749C 871.24963 1116.5579 858.2463 1116.316 845.252 1116.5474C 841.90045 1116.607 838.5666 1117.6603 833.7457 1118.5214C 836.3507 1123.5535 837.65985 1127.3522 839.98724 1130.3644C 851.79297 1145.6436 863.09686 1161.4102 876.00903 1175.713C 898.8055 1200.9647 924.35223 1223.155 952.624 1242.3909C 991.5084 1268.8475 1033.1248 1289.4026 1077.9312 1303.3373C 1116.2076 1315.2412 1155.2843 1323.1006 1195.4562 1325.7773C 1224.1282 1327.688 1252.7361 1328.0564 1281.3246 1325.9894C 1290.1045 1325.3546 1295.4952 1327.566 1300.5597 1334.7354C 1334.9679 1383.4442 1369.7498 1431.8889 1404.4004 1480.4265C 1435.5698 1524.0879 1466.6985 1567.7783 1497.9469 1611.383C 1500.125 1614.4224 1503.1471 1616.8568 1506.4883 1620.3074C 1509.6299 1616.3911 1511.9952 1613.6797 1514.0964 1610.7771C 1519.5653 1603.222 1524.8971 1595.568 1530.3213 1587.9805C 1554.9282 1553.5591 1579.5782 1519.1687 1604.156 1484.7266C 1639.9612 1434.5505 1675.8044 1384.4011 1711.3877 1334.068C 1715.9666 1327.591 1721.006 1325.0065 1728.967 1325.7598C 1763.5945 1329.0356 1798.2987 1328.183 1832.758 1324.286C 1901.3657 1316.528 1966.3114 1296.9387 2026.524 1262.3458C 2084.3838 1229.1047 2132.642 1185.5298 2171.064 1131.033C 2173.642 1127.3761 2177.07 1123.777 2175.6055 1117.434C 2171.8242 1117.1212 2167.9688 1116.5732 2164.1072 1116.5251C 2151.777 1116.3712 2139.444 1116.4543 2127.1133 1116.336C 2122.6316 1116.2931 2118.019 1116.4065 2113.23 1112.4984C 2116.4717 1111.4901 2118.5764 1110.724 2120.7368 1110.1805C 2143.0776 1104.5609 2164.9368 1097.7784 2185.0635 1086.122C 2218.0383 1067.0244 2242.7273 1040.2334 2259.9324 1006.42004C 2261.6223 1003.09894 2262.1472 999.185 2263.6147 994.17267C 2256.86 993.7918 2251.6577 993.2547 2246.4546 993.24713C 2223.7922 993.2143 2201.1301 993.37976 2178.4678 993.3603C 2174.341 993.35675 2169.8452 994.19086 2165.3325 989.3104C 2169.383 987.28015 2172.6648 985.4199 2176.11 983.94104C 2214.1045 967.6323 2246.8948 944.7807 2272.3433 911.46765C 2297.016 879.1697 2312.0671 843.1517 2318.7815 803.3668C 2319.1816 800.9956 2318.5742 798.45447 2318.3403 794.2995C 2313.3508 796.41064 2309.7961 797.7965 2306.3408 799.39703C 2290.0522 806.9413 2274.143 815.4493 2257.4492 821.9447C 2218.557 837.0773 2178.1958 847.5914 2137.4058 855.9881C 2084.882 866.80035 2032.0226 875.9705 1979.4172 886.40063C 1936.2905 894.95123 1893.264 904.0358 1850.3113 913.42395C 1828.1301 918.272 1806.6677 925.6601 1786.66 936.5949C 1768.3207 946.618 1752.1074 959.1483 1741.5297 977.78864C 1740.273 980.00354 1738.558 981.9584 1736.2369 985.1642C 1732.8824 981.77045 1730.1455 979.1205 1727.541 976.34625C 1713.8756 961.79114 1701.404 945.8588 1686.3704 932.8953C 1649.3607 900.9825 1606.5205 880.1618 1558.2373 871.10675C 1486.1694 857.5912 1419.1847 870.95746 1356.9117 909.1667C 1327.5671 927.17175 1303.1364 950.5125 1282.4626 977.9375C 1276.7302 985.5422 1274.2267 985.52985 1269.6394 977.53015C 1259.8722 960.4967 1245.3887 948.43243 1228.8376 938.73535C 1208.8481 927.0236 1187.1332 919.1944 1164.6255 914.28925C 1113.199 903.08185 1061.6401 892.4657 1010.05164 882.0216C 956.8403 871.24896 903.34094 861.82874 850.31696 850.22076C 798.4842 838.87366 747.7799 823.6072 701.2053 797.1032C 699.0823 795.8951 696.3976 795.6741 692.79565 794.66223C 692.5535 798.28503 691.897 800.8533 692.29333 803.2472C 700.22644 851.16003 719.8328 893.581 753.09357 929.1636C 775.7177 953.36694 803.12695 970.86365 833.663 983.56177C 837.4108 985.12024 840.976 987.1176 844.62585 988.9116C 844.46606 989.834 844.30634 990.7563 844.14655 991.6786C 840.1169 992.1593 836.08997 993.02856 832.0572 993.0561C 809.72833 993.2088 787.3978 993.09784 765.0686 993.2184C 759.8746 993.2464 754.6835 993.82324 750.02795 994.114C 747.2154 1000.3632 750.2207 1004.40656 752.2643 1008.40576C 767.43823 1038.1003 788.86975 1062.2601 817.99347 1081.3951z" stroke="none" fill="#D09797" fill-rule="nonzero" />
    <path d="M817.3677 1081.0205C 788.86975 1062.2601 767.43823 1038.1003 752.2643 1008.40576C 750.2207 1004.40656 747.2154 1000.3632 750.02795 994.114C 754.6835 993.82324 759.8746 993.2464 765.0686 993.2184C 787.3978 993.09784 809.72833 993.2088 832.0572 993.0561C 836.08997 993.02856 840.1169 992.1593 844.14655 991.6786C 844.30634 990.7563 844.46606 989.834 844.62585 988.9116C 840.976 987.1176 837.4108 985.12024 833.663 983.56177C 803.12695 970.86365 775.7177 953.36694 753.09357 929.1636C 719.8328 893.581 700.22644 851.16003 692.29333 803.2472C 691.897 800.8533 692.5535 798.28503 692.79565 794.66223C 696.3976 795.6741 699.0823 795.8951 701.2053 797.1032C 747.7799 823.6072 798.4842 838.87366 850.31696 850.22076C 903.34094 861.82874 956.8403 871.24896 1010.05164 882.0216C 1061.6401 892.4657 1113.199 903.08185 1164.6255 914.28925C 1187.1332 919.1944 1208.8481 927.0236 1228.8376 938.73535C 1245.3887 948.43243 1259.8722 960.4967 1269.6394 977.53015C 1274.2267 985.52985 1276.7302 985.5422 1282.4626 977.9375C 1303.1364 950.5125 1327.5671 927.17175 1356.9117 909.1667C 1419.1847 870.95746 1486.1694 857.5912 1558.2373 871.10675C 1606.5205 880.1618 1649.3607 900.9825 1686.3704 932.8953C 1701.404 945.8588 1713.8756 961.79114 1727.541 976.34625C 1730.1455 979.1205 1732.8824 981.77045 1736.2369 985.1642C 1738.558 981.9584 1740.273 980.00354 1741.5297 977.78864C 1752.1074 959.1483 1768.3207 946.618 1786.66 936.5949C 1806.6677 925.6601 1828.1301 918.272 1850.3113 913.42395C 1893.264 904.0358 1936.2905 894.95123 1979.4172 886.40063C 2032.0226 875.9705 2084.882 866.80035 2137.4058 855.9881C 2178.1958 847.5914 2218.557 837.0773 2257.4492 821.9447C 2274.143 815.4493 2290.0522 806.9413 2306.3408 799.39703C 2309.7961 797.7965 2313.3508 796.41064 2318.3403 794.2995C 2318.5742 798.45447 2319.1816 800.9956 2318.7815 803.3668C 2312.0671 843.1517 2297.016 879.1697 2272.3433 911.46765C 2246.8948 944.7807 2214.1045 967.6323 2176.11 983.94104C 2172.6648 985.4199 2169.383 987.28015 2165.3325 989.3104C 2169.8452 994.19086 2174.341 993.35675 2178.4678 993.3603C 2201.1301 993.37976 2223.7922 993.2143 2246.4546 993.24713C 2251.6577 993.2547 2256.86 993.7918 2263.6147 994.17267C 2262.1472 999.185 2261.6223 1003.09894 2259.9324 1006.42004C 2242.7273 1040.2334 2218.0383 1067.0244 2185.0635 1086.122C 2164.9368 1097.7784 2143.0776 1104.5609 2120.7368 1110.1805C 2118.5764 1110.724 2116.4717 1111.4901 2113.23 1112.4984C 2118.019 1116.4065 2122.6316 1116.2931 2127.1133 1116.336C 2139.444 1116.4543 2151.777 1116.3712 2164.1072 1116.5251C 2167.9688 1116.5732 2171.8242 1117.1212 2175.6055 1117.434C 2177.07 1123.777 2173.642 1127.3761 2171.064 1131.033C 2132.642 1185.5298 2084.3838 1229.1047 2026.524 1262.3458C 1966.3114 1296.9387 1901.3657 1316.528 1832.758 1324.286C 1798.2987 1328.183 1763.5945 1329.0356 1728.967 1325.7598C 1721.006 1325.0065 1715.9666 1327.591 1711.3877 1334.068C 1675.8044 1384.4011 1639.9612 1434.5505 1604.156 1484.7266C 1579.5782 1519.1687 1554.9282 1553.5591 1530.3213 1587.9805C 1524.8971 1595.568 1519.5653 1603.222 1514.0964 1610.7771C 1511.9952 1613.6797 1509.6299 1616.3911 1506.4883 1620.3074C 1503.1471 1616.8568 1500.125 1614.4224 1497.9469 1611.383C 1466.6985 1567.7783 1435.5698 1524.0879 1404.4004 1480.4265C 1369.7498 1431.8889 1334.9679 1383.4442 1300.5597 1334.7354C 1295.4952 1327.566 1290.1045 1325.3546 1281.3246 1325.9894C 1252.7361 1328.0564 1224.1282 1327.688 1195.4562 1325.7773C 1155.2843 1323.1006 1116.2076 1315.2412 1077.9312 1303.3373C 1033.1248 1289.4026 991.5084 1268.8475 952.624 1242.3909C 924.35223 1223.155 898.8055 1200.9647 876.00903 1175.713C 863.09686 1161.4102 851.79297 1145.6436 839.98724 1130.3644C 837.65985 1127.3522 836.3507 1123.5535 833.7457 1118.5214C 838.5666 1117.6603 841.90045 1116.607 845.252 1116.5474C 858.2463 1116.316 871.24963 1116.5579 884.242 1116.2749C 888.2783 1116.187 892.29065 1114.995 896.38983 1113.0514C 868.80676 1105.3872 841.84424 1097.243 817.3677 1081.0205zM1413.2886 1078.1046C 1403.0037 1093.7545 1396.9729 1111.022 1395.9036 1129.6001C 1392.0731 1196.1423 1444.7488 1246.4985 1501.9325 1247.069C 1535.4451 1247.4031 1563.7145 1236.4304 1586.0383 1212.393C 1634.9795 1159.6954 1619.3347 1081.4929 1568.8252 1047.7194C 1531.889 1023.02167 1493.2738 1020.52313 1453.536 1041.0509C 1437.2036 1049.4879 1423.997 1061.395 1413.2886 1078.1046z" stroke="none" fill="#EA1A1D" fill-rule="nonzero" />
    <path d="M1413.6698 1077.4937C 1423.997 1061.395 1437.2036 1049.4879 1453.536 1041.0509C 1493.2738 1020.52313 1531.889 1023.02167 1568.8252 1047.7194C 1619.3347 1081.4929 1634.9795 1159.6954 1586.0383 1212.393C 1563.7145 1236.4304 1535.4451 1247.4031 1501.9325 1247.069C 1444.7488 1246.4985 1392.0731 1196.1423 1395.9036 1129.6001C 1396.9729 1111.022 1403.0037 1093.7545 1413.6698 1077.4937zM1519.5739 1243.2699C 1522.2085 1242.9833 1524.9249 1243.0143 1527.4646 1242.3594C 1546.3615 1237.4862 1563.1011 1228.6896 1577.7063 1215.5571C 1590.5319 1204.0247 1599.3911 1189.5951 1604.8801 1173.9355C 1610.844 1156.921 1613.2737 1139.0435 1609.6982 1120.3824C 1606.7913 1105.2108 1601.2311 1091.6509 1593.0826 1078.9735C 1582.4478 1062.4277 1568.0048 1050.1366 1550.3169 1041.3062C 1539.5256 1035.9188 1528.7317 1031.319 1516.4807 1031.7235C 1500.0518 1032.266 1483.7698 1030.7405 1467.5979 1037.5651C 1434.7264 1051.437 1413.9015 1075.9681 1403.5397 1108.7673C 1397.4808 1127.9457 1398.3124 1148.725 1404.6543 1168.231C 1407.8635 1178.1017 1413.1361 1187.4637 1418.521 1196.428C 1427.2799 1211.0089 1439.9042 1221.8767 1454.5824 1230.3372C 1474.2057 1241.648 1495.3386 1245.9678 1519.5739 1243.2699z" stroke="none" fill="#D09797" fill-rule="nonzero" />
    <path d="M1518.7092 1243.503C 1495.3386 1245.9678 1474.2057 1241.648 1454.5824 1230.3372C 1439.9042 1221.8767 1427.2799 1211.0089 1418.521 1196.428C 1413.1361 1187.4637 1407.8635 1178.1017 1404.6543 1168.231C 1398.3124 1148.725 1397.4808 1127.9457 1403.5397 1108.7673C 1413.9015 1075.9681 1434.7264 1051.437 1467.5979 1037.5651C 1483.7698 1030.7405 1500.0518 1032.266 1516.4807 1031.7235C 1528.7317 1031.319 1539.5256 1035.9188 1550.3169 1041.3062C 1568.0048 1050.1366 1582.4478 1062.4277 1593.0826 1078.9735C 1601.2311 1091.6509 1606.7913 1105.2108 1609.6982 1120.3824C 1613.2737 1139.0435 1610.844 1156.921 1604.8801 1173.9355C 1599.3911 1189.5951 1590.5319 1204.0247 1577.7063 1215.5571C 1563.1011 1228.6896 1546.3615 1237.4862 1527.4646 1242.3594C 1524.9249 1243.0143 1522.2085 1242.9833 1518.7092 1243.503z" stroke="none" fill="#000000" fill-rule="nonzero" />
</g>
</svg>
