<svg version="1.1" id="Layer_1" xmlns="http://www.w3.org/2000/svg" xmlns:xlink="http://www.w3.org/1999/xlink" x="0px" y="0px"
	 width="100%" viewBox="0 0 3000 2409" enable-background="new 0 0 3000 2409" xml:space="preserve">
<path fill="#000000" opacity="1.000000" stroke="none" 
	d="
M1544.000000,2412.000000 
	C1029.333374,2412.000000 515.666687,2412.000000 2.000000,2412.000000 
	C2.000000,1608.666626 2.000000,805.333313 2.000000,2.000000 
	C1002.000000,2.000000 2002.000000,2.000000 3002.000000,2.000000 
	C3002.000000,805.333313 3002.000000,1608.666626 3002.000000,2412.000000 
	C2516.333252,2412.000000 2030.666626,2412.000000 1544.000000,2412.000000 
M697.190552,787.902222 
	C695.353210,787.127747 693.577271,786.116821 691.667603,785.621155 
	C684.772827,783.831787 682.524231,786.248352 684.251770,793.275635 
	C685.581909,798.686462 686.810913,804.122742 688.035156,809.558899 
	C690.046570,818.490295 690.867737,827.894592 694.246460,836.270325 
	C701.175354,853.446655 706.922791,871.104858 716.552124,887.247803 
	C725.422852,902.119141 734.876404,916.473694 746.537048,929.159119 
	C770.513000,955.242371 798.946167,974.905945 832.615601,986.627014 
	C834.132385,987.155151 835.306946,988.666382 837.809509,990.642334 
	C833.609375,991.003662 831.006714,991.299622 828.395630,991.438721 
	C820.652100,991.851257 813.101135,989.614014 805.593079,989.133667 
	C786.672180,987.923157 767.621948,988.718384 748.623596,988.747620 
	C744.882263,988.753357 741.205994,989.046631 739.799255,993.588196 
	C767.220581,1059.003540 816.600464,1097.694214 885.277893,1113.430908 
	C875.232300,1114.109253 865.313354,1113.596680 855.472107,1114.252197 
	C845.482544,1114.917725 835.364441,1110.445435 824.771851,1114.424805 
	C826.415955,1117.554810 827.447144,1119.992432 828.877075,1122.168091 
	C845.632202,1147.661377 864.152161,1171.737061 886.011475,1193.129150 
	C912.186829,1218.744995 940.657227,1241.415894 972.086548,1260.285889 
	C999.366699,1276.664795 1027.926392,1290.485107 1057.734497,1301.541992 
	C1079.407837,1309.581299 1101.642456,1315.970581 1124.407959,1320.218750 
	C1134.139893,1322.034912 1144.304077,1322.173828 1153.705566,1324.974976 
	C1168.297363,1329.322754 1183.248779,1328.181274 1197.966187,1329.335571 
	C1217.836182,1330.893921 1237.894165,1330.130005 1257.872070,1330.204590 
	C1266.189819,1330.235596 1274.532104,1330.171753 1282.820557,1329.567627 
	C1289.367554,1329.090210 1293.133545,1332.012085 1296.577515,1337.219604 
	C1304.437622,1349.104370 1312.749512,1360.695557 1321.047729,1372.284424 
	C1340.516479,1399.473022 1360.192383,1426.513916 1379.576416,1453.762451 
	C1393.039307,1472.687622 1406.001465,1491.969116 1419.471558,1510.888916 
	C1432.911865,1529.766479 1446.802368,1548.322754 1460.317871,1567.147583 
	C1472.659180,1584.337158 1484.747803,1601.708008 1496.995483,1618.965210 
	C1498.144043,1620.583618 1499.535767,1622.064941 1500.985596,1623.427979 
	C1505.552979,1627.721436 1508.592773,1627.340210 1512.249390,1622.023926 
	C1521.612183,1608.411743 1530.857910,1594.718384 1540.302734,1581.163574 
	C1549.409058,1568.094238 1558.650146,1555.117798 1567.931396,1542.171509 
	C1581.805664,1522.819092 1595.780273,1503.538696 1609.687866,1484.210083 
	C1627.089478,1460.025635 1644.533203,1435.871094 1661.829224,1411.611084 
	C1672.214722,1397.044067 1682.248657,1382.226440 1692.635376,1367.660400 
	C1701.074463,1355.825806 1709.693359,1344.113770 1718.519897,1332.567139 
	C1719.895386,1330.767700 1722.815796,1329.115234 1725.006348,1329.134766 
	C1744.281372,1329.305786 1763.558960,1330.391113 1782.824097,1330.174316 
	C1802.370239,1329.954224 1822.042114,1329.706909 1841.402466,1327.358154 
	C1859.972168,1325.105225 1878.152466,1319.808594 1896.612671,1316.446777 
	C1924.133667,1311.435059 1950.299072,1302.372925 1975.902100,1291.375366 
	C2005.796509,1278.534180 2033.950317,1262.691772 2061.183594,1244.838989 
	C2081.290283,1231.658081 2099.338379,1216.172974 2117.086914,1200.268799 
	C2140.145996,1179.606201 2159.504395,1155.573364 2177.162598,1130.232178 
	C2180.327637,1125.690186 2185.314453,1121.329712 2184.227295,1113.670654 
	C2163.589844,1113.670654 2143.219482,1113.670654 2122.849121,1113.670654 
	C2155.869629,1106.220215 2186.024170,1092.791626 2212.628906,1071.926636 
	C2239.453125,1050.889526 2258.598389,1024.158081 2272.073486,990.856873 
	C2265.929688,989.986145 2261.497803,988.962158 2257.032959,988.790222 
	C2230.416260,987.765686 2203.912842,989.621277 2177.439697,992.192078 
	C2175.076172,992.421509 2171.924805,993.519104 2170.796875,988.742798 
	C2198.730469,977.658569 2225.642334,964.389771 2248.312256,944.001892 
	C2271.202393,923.415833 2289.184814,899.307739 2302.264893,871.261658 
	C2314.929932,844.106140 2322.790283,815.871887 2326.850342,786.707764 
	C2320.864014,783.918457 2317.241699,786.544800 2313.508301,788.704468 
	C2302.902832,794.839600 2292.729004,801.947388 2281.598633,806.907104 
	C2247.738037,821.995605 2212.661377,833.872375 2176.734375,842.974365 
	C2155.940430,848.242432 2134.902588,852.628723 2113.849121,856.775513 
	C2080.082764,863.426392 2046.208984,869.530334 2012.387207,875.901062 
	C1983.136597,881.410706 1953.816284,886.586487 1924.670532,892.606140 
	C1889.633545,899.842590 1854.542725,906.982483 1820.356323,917.769592 
	C1803.304443,923.150146 1786.540527,929.459106 1771.927490,939.956482 
	C1757.931030,950.010742 1744.174927,960.586243 1737.889282,977.755371 
	C1737.499512,978.819641 1736.267212,979.575378 1735.295532,980.615112 
	C1731.135010,974.845398 1727.518311,969.279785 1723.357666,964.155701 
	C1706.105225,942.907715 1686.282104,924.552246 1663.459473,909.224182 
	C1640.371094,893.717712 1615.407837,882.346924 1589.088135,874.135498 
	C1573.181519,869.172791 1557.059692,863.669067 1539.825684,865.284912 
	C1539.255615,865.338318 1538.654907,864.853455 1538.046265,864.743469 
	C1532.629883,863.764587 1527.207520,861.999084 1521.788574,862.005005 
	C1504.541138,862.023804 1487.397217,862.420227 1470.104492,864.538635 
	C1445.513794,867.551147 1421.862183,872.874573 1399.119141,882.418457 
	C1380.742188,890.130188 1362.841553,898.957214 1346.791992,910.804626 
	C1333.229126,920.816406 1320.233032,931.665039 1307.573975,942.811157 
	C1296.597168,952.476135 1287.461670,963.900269 1279.751831,976.412109 
	C1278.684692,978.143738 1276.790771,979.365906 1275.438965,980.670288 
	C1271.680054,974.234680 1269.052490,967.977112 1264.912720,962.969910 
	C1251.142578,946.314087 1233.777222,934.231567 1213.902100,925.948242 
	C1193.107178,917.281372 1171.568481,910.787048 1149.595825,905.864136 
	C1126.294800,900.643677 1102.939941,895.652405 1079.554810,890.821228 
	C1058.176636,886.404541 1036.756104,882.177063 1015.295776,878.180176 
	C1004.561096,876.180847 993.398804,875.930664 982.972290,872.975647 
	C972.290894,869.948425 961.292786,869.360474 950.544006,866.978638 
	C935.785156,863.708130 920.767944,861.364990 905.971802,857.927063 
	C883.088135,852.609985 859.894897,848.544312 837.168579,842.653076 
	C810.980164,835.864502 785.075317,827.931763 759.220886,819.934570 
	C750.718750,817.304688 742.522278,813.376221 734.603577,809.241821 
	C722.296082,802.815979 710.345825,795.705811 697.190552,787.902222 
z"/>
<path fill="#D09797" opacity="1.000000" stroke="none" 
	d="
M697.717346,788.393982 
	C710.345825,795.705811 722.296082,802.815979 734.603577,809.241821 
	C742.522278,813.376221 750.718750,817.304688 759.220886,819.934570 
	C785.075317,827.931763 810.980164,835.864502 837.168579,842.653076 
	C859.894897,848.544312 883.088135,852.609985 905.971802,857.927063 
	C920.767944,861.364990 935.785156,863.708130 950.544006,866.978638 
	C961.292786,869.360474 972.290894,869.948425 982.972290,872.975647 
	C993.398804,875.930664 1004.561096,876.180847 1015.295776,878.180176 
	C1036.756104,882.177063 1058.176636,886.404541 1079.554810,890.821228 
	C1102.939941,895.652405 1126.294800,900.643677 1149.595825,905.864136 
	C1171.568481,910.787048 1193.107178,917.281372 1213.902100,925.948242 
	C1233.777222,934.231567 1251.142578,946.314087 1264.912720,962.969910 
	C1269.052490,967.977112 1271.680054,974.234680 1275.438965,980.670288 
	C1276.790771,979.365906 1278.684692,978.143738 1279.751831,976.412109 
	C1287.461670,963.900269 1296.597168,952.476135 1307.573975,942.811157 
	C1320.233032,931.665039 1333.229126,920.816406 1346.791992,910.804626 
	C1362.841553,898.957214 1380.742188,890.130188 1399.119141,882.418457 
	C1421.862183,872.874573 1445.513794,867.551147 1470.104492,864.538635 
	C1487.397217,862.420227 1504.541138,862.023804 1521.788574,862.005005 
	C1527.207520,861.999084 1532.629883,863.764587 1538.046265,864.743469 
	C1538.654907,864.853455 1539.255615,865.338318 1539.825684,865.284912 
	C1557.059692,863.669067 1573.181519,869.172791 1589.088135,874.135498 
	C1615.407837,882.346924 1640.371094,893.717712 1663.459473,909.224182 
	C1686.282104,924.552246 1706.105225,942.907715 1723.357666,964.155701 
	C1727.518311,969.279785 1731.135010,974.845398 1735.295532,980.615112 
	C1736.267212,979.575378 1737.499512,978.819641 1737.889282,977.755371 
	C1744.174927,960.586243 1757.931030,950.010742 1771.927490,939.956482 
	C1786.540527,929.459106 1803.304443,923.150146 1820.356323,917.769592 
	C1854.542725,906.982483 1889.633545,899.842590 1924.670532,892.606140 
	C1953.816284,886.586487 1983.136597,881.410706 2012.387207,875.901062 
	C2046.208984,869.530334 2080.082764,863.426392 2113.849121,856.775513 
	C2134.902588,852.628723 2155.940430,848.242432 2176.734375,842.974365 
	C2212.661377,833.872375 2247.738037,821.995605 2281.598633,806.907104 
	C2292.729004,801.947388 2302.902832,794.839600 2313.508301,788.704468 
	C2317.241699,786.544800 2320.864014,783.918457 2326.850342,786.707764 
	C2322.790283,815.871887 2314.929932,844.106140 2302.264893,871.261658 
	C2289.184814,899.307739 2271.202393,923.415833 2248.312256,944.001892 
	C2225.642334,964.389771 2198.730469,977.658569 2170.796875,988.742798 
	C2171.924805,993.519104 2175.076172,992.421509 2177.439697,992.192078 
	C2203.912842,989.621277 2230.416260,987.765686 2257.032959,988.790222 
	C2261.497803,988.962158 2265.929688,989.986145 2272.073486,990.856873 
	C2258.598389,1024.158081 2239.453125,1050.889526 2212.628906,1071.926636 
	C2186.024170,1092.791626 2155.869629,1106.220215 2122.849121,1113.670654 
	C2143.219482,1113.670654 2163.589844,1113.670654 2184.227295,1113.670654 
	C2185.314453,1121.329712 2180.327637,1125.690186 2177.162598,1130.232178 
	C2159.504395,1155.573364 2140.145996,1179.606201 2117.086914,1200.268799 
	C2099.338379,1216.172974 2081.290283,1231.658081 2061.183594,1244.838989 
	C2033.950317,1262.691772 2005.796509,1278.534180 1975.902100,1291.375366 
	C1950.299072,1302.372925 1924.133667,1311.435059 1896.612671,1316.446777 
	C1878.152466,1319.808594 1859.972168,1325.105225 1841.402466,1327.358154 
	C1822.042114,1329.706909 1802.370239,1329.954224 1782.824097,1330.174316 
	C1763.558960,1330.391113 1744.281372,1329.305786 1725.006348,1329.134766 
	C1722.815796,1329.115234 1719.895386,1330.767700 1718.519897,1332.567139 
	C1709.693359,1344.113770 1701.074463,1355.825806 1692.635376,1367.660400 
	C1682.248657,1382.226440 1672.214722,1397.044067 1661.829224,1411.611084 
	C1644.533203,1435.871094 1627.089478,1460.025635 1609.687866,1484.210083 
	C1595.780273,1503.538696 1581.805664,1522.819092 1567.931396,1542.171509 
	C1558.650146,1555.117798 1549.409058,1568.094238 1540.302734,1581.163574 
	C1530.857910,1594.718384 1521.612183,1608.411743 1512.249390,1622.023926 
	C1508.592773,1627.340210 1505.552979,1627.721436 1500.985596,1623.427979 
	C1499.535767,1622.064941 1498.144043,1620.583618 1496.995483,1618.965210 
	C1484.747803,1601.708008 1472.659180,1584.337158 1460.317871,1567.147583 
	C1446.802368,1548.322754 1432.911865,1529.766479 1419.471558,1510.888916 
	C1406.001465,1491.969116 1393.039307,1472.687622 1379.576416,1453.762451 
	C1360.192383,1426.513916 1340.516479,1399.473022 1321.047729,1372.284424 
	C1312.749512,1360.695557 1304.437622,1349.104370 1296.577515,1337.219604 
	C1293.133545,1332.012085 1289.367554,1329.090210 1282.820557,1329.567627 
	C1274.532104,1330.171753 1266.189819,1330.235596 1257.872070,1330.204590 
	C1237.894165,1330.130005 1217.836182,1330.893921 1197.966187,1329.335571 
	C1183.248779,1328.181274 1168.297363,1329.322754 1153.705566,1324.974976 
	C1144.304077,1322.173828 1134.139893,1322.034912 1124.407959,1320.218750 
	C1101.642456,1315.970581 1079.407837,1309.581299 1057.734497,1301.541992 
	C1027.926392,1290.485107 999.366699,1276.664795 972.086548,1260.285889 
	C940.657227,1241.415894 912.186829,1218.744995 886.011475,1193.129150 
	C864.152161,1171.737061 845.632202,1147.661377 828.877075,1122.168091 
	C827.447144,1119.992432 826.415955,1117.554810 824.771851,1114.424805 
	C835.364441,1110.445435 845.482544,1114.917725 855.472107,1114.252197 
	C865.313354,1113.596680 875.232300,1114.109253 885.277893,1113.430908 
	C816.600464,1097.694214 767.220581,1059.003540 739.799255,993.588196 
	C741.205994,989.046631 744.882263,988.753357 748.623596,988.747620 
	C767.621948,988.718384 786.672180,987.923157 805.593079,989.133667 
	C813.101135,989.614014 820.652100,991.851257 828.395630,991.438721 
	C831.006714,991.299622 833.609375,991.003662 837.809509,990.642334 
	C835.306946,988.666382 834.132385,987.155151 832.615601,986.627014 
	C798.946167,974.905945 770.513000,955.242371 746.537048,929.159119 
	C734.876404,916.473694 725.422852,902.119141 716.552124,887.247803 
	C706.922791,871.104858 701.175354,853.446655 694.246460,836.270325 
	C690.867737,827.894592 690.046570,818.490295 688.035156,809.558899 
	C686.810913,804.122742 685.581909,798.686462 684.251770,793.275635 
	C682.524231,786.248352 684.772827,783.831787 691.667603,785.621155 
	C693.577271,786.116821 695.353210,787.127747 697.717346,788.393982 
M817.993469,1081.395142 
	C841.844238,1097.243042 868.806763,1105.387207 896.389832,1113.051392 
	C892.290649,1114.994995 888.278320,1116.187012 884.242004,1116.274902 
	C871.249634,1116.557861 858.246277,1116.316040 845.252014,1116.547363 
	C841.900452,1116.607056 838.566589,1117.660278 833.745728,1118.521362 
	C836.350708,1123.553467 837.659851,1127.352173 839.987244,1130.364380 
	C851.792969,1145.643555 863.096863,1161.410156 876.009033,1175.713013 
	C898.805481,1200.964722 924.352234,1223.155029 952.624023,1242.390869 
	C991.508423,1268.847534 1033.124756,1289.402588 1077.931152,1303.337280 
	C1116.207642,1315.241211 1155.284302,1323.100586 1195.456177,1325.777344 
	C1224.128174,1327.687988 1252.736084,1328.056396 1281.324585,1325.989380 
	C1290.104492,1325.354614 1295.495239,1327.566040 1300.559692,1334.735352 
	C1334.967896,1383.444214 1369.749756,1431.888916 1404.400391,1480.426514 
	C1435.569824,1524.087891 1466.698486,1567.778320 1497.946899,1611.383057 
	C1500.125000,1614.422363 1503.147095,1616.856812 1506.488281,1620.307373 
	C1509.629883,1616.391113 1511.995239,1613.679688 1514.096436,1610.777100 
	C1519.565308,1603.222046 1524.897095,1595.567993 1530.321289,1587.980469 
	C1554.928223,1553.559082 1579.578247,1519.168701 1604.156006,1484.726562 
	C1639.961182,1434.550537 1675.804443,1384.401123 1711.387695,1334.067993 
	C1715.966553,1327.590942 1721.005981,1325.006470 1728.967041,1325.759766 
	C1763.594482,1329.035645 1798.298706,1328.182983 1832.758057,1324.286011 
	C1901.365723,1316.527954 1966.311401,1296.938721 2026.524048,1262.345825 
	C2084.383789,1229.104736 2132.642090,1185.529785 2171.063965,1131.032959 
	C2173.642090,1127.376099 2177.070068,1123.776978 2175.605469,1117.433960 
	C2171.824219,1117.121216 2167.968750,1116.573242 2164.107178,1116.525146 
	C2151.777100,1116.371216 2139.444092,1116.454346 2127.113281,1116.336060 
	C2122.631592,1116.293091 2118.019043,1116.406494 2113.229980,1112.498413 
	C2116.471680,1111.490112 2118.576416,1110.723999 2120.736816,1110.180542 
	C2143.077637,1104.560913 2164.936768,1097.778442 2185.063477,1086.121948 
	C2218.038330,1067.024414 2242.727295,1040.233398 2259.932373,1006.420044 
	C2261.622314,1003.098938 2262.147217,999.184998 2263.614746,994.172668 
	C2256.860107,993.791809 2251.657715,993.254700 2246.454590,993.247131 
	C2223.792236,993.214294 2201.130127,993.379761 2178.467773,993.360291 
	C2174.341064,993.356750 2169.845215,994.190857 2165.332520,989.310425 
	C2169.383057,987.280151 2172.664795,985.419922 2176.110107,983.941040 
	C2214.104492,967.632324 2246.894775,944.780701 2272.343262,911.467651 
	C2297.016113,879.169678 2312.067139,843.151672 2318.781494,803.366821 
	C2319.181641,800.995605 2318.574219,798.454468 2318.340332,794.299500 
	C2313.350830,796.410645 2309.796143,797.796509 2306.340820,799.397034 
	C2290.052246,806.941284 2274.143066,815.449280 2257.449219,821.944702 
	C2218.556885,837.077271 2178.195801,847.591370 2137.405762,855.988098 
	C2084.882080,866.800354 2032.022583,875.970520 1979.417236,886.400635 
	C1936.290527,894.951233 1893.264038,904.035828 1850.311279,913.423950 
	C1828.130127,918.271973 1806.667725,925.660095 1786.660034,936.594910 
	C1768.320679,946.617981 1752.107422,959.148315 1741.529663,977.788635 
	C1740.272949,980.003540 1738.557983,981.958374 1736.236938,985.164185 
	C1732.882446,981.770447 1730.145508,979.120483 1727.541016,976.346252 
	C1713.875610,961.791138 1701.404053,945.858826 1686.370361,932.895325 
	C1649.360718,900.982483 1606.520508,880.161804 1558.237305,871.106750 
	C1486.169434,857.591187 1419.184692,870.957458 1356.911743,909.166687 
	C1327.567139,927.171753 1303.136353,950.512512 1282.462646,977.937500 
	C1276.730225,985.542175 1274.226685,985.529846 1269.639404,977.530151 
	C1259.872192,960.496704 1245.388672,948.432434 1228.837646,938.735352 
	C1208.848145,927.023621 1187.133179,919.194397 1164.625488,914.289246 
	C1113.198975,903.081848 1061.640137,892.465698 1010.051636,882.021606 
	C956.840271,871.248962 903.340942,861.828735 850.316956,850.220764 
	C798.484192,838.873657 747.779907,823.607178 701.205322,797.103210 
	C699.082275,795.895081 696.397583,795.674072 692.795654,794.662231 
	C692.553528,798.285034 691.896973,800.853271 692.293335,803.247192 
	C700.226440,851.160034 719.832825,893.580994 753.093567,929.163574 
	C775.717712,953.366943 803.126953,970.863647 833.663025,983.561768 
	C837.410828,985.120239 840.976013,987.117615 844.625854,988.911621 
	C844.466064,989.833984 844.306335,990.756287 844.146545,991.678589 
	C840.116882,992.159302 836.089966,993.028564 832.057190,993.056091 
	C809.728333,993.208801 787.397827,993.097839 765.068604,993.218384 
	C759.874573,993.246399 754.683472,993.823242 750.027954,994.114014 
	C747.215393,1000.363220 750.220703,1004.406555 752.264282,1008.405762 
	C767.438232,1038.100342 788.869751,1062.260132 817.993469,1081.395142 
z"/>
<path fill="#EA1A1D" opacity="1.000000" stroke="none" 
	d="
M817.367676,1081.020508 
	C788.869751,1062.260132 767.438232,1038.100342 752.264282,1008.405762 
	C750.220703,1004.406555 747.215393,1000.363220 750.027954,994.114014 
	C754.683472,993.823242 759.874573,993.246399 765.068604,993.218384 
	C787.397827,993.097839 809.728333,993.208801 832.057190,993.056091 
	C836.089966,993.028564 840.116882,992.159302 844.146545,991.678589 
	C844.306335,990.756287 844.466064,989.833984 844.625854,988.911621 
	C840.976013,987.117615 837.410828,985.120239 833.663025,983.561768 
	C803.126953,970.863647 775.717712,953.366943 753.093567,929.163574 
	C719.832825,893.580994 700.226440,851.160034 692.293335,803.247192 
	C691.896973,800.853271 692.553528,798.285034 692.795654,794.662231 
	C696.397583,795.674072 699.082275,795.895081 701.205322,797.103210 
	C747.779907,823.607178 798.484192,838.873657 850.316956,850.220764 
	C903.340942,861.828735 956.840271,871.248962 1010.051636,882.021606 
	C1061.640137,892.465698 1113.198975,903.081848 1164.625488,914.289246 
	C1187.133179,919.194397 1208.848145,927.023621 1228.837646,938.735352 
	C1245.388672,948.432434 1259.872192,960.496704 1269.639404,977.530151 
	C1274.226685,985.529846 1276.730225,985.542175 1282.462646,977.937500 
	C1303.136353,950.512512 1327.567139,927.171753 1356.911743,909.166687 
	C1419.184692,870.957458 1486.169434,857.591187 1558.237305,871.106750 
	C1606.520508,880.161804 1649.360718,900.982483 1686.370361,932.895325 
	C1701.404053,945.858826 1713.875610,961.791138 1727.541016,976.346252 
	C1730.145508,979.120483 1732.882446,981.770447 1736.236938,985.164185 
	C1738.557983,981.958374 1740.272949,980.003540 1741.529663,977.788635 
	C1752.107422,959.148315 1768.320679,946.617981 1786.660034,936.594910 
	C1806.667725,925.660095 1828.130127,918.271973 1850.311279,913.423950 
	C1893.264038,904.035828 1936.290527,894.951233 1979.417236,886.400635 
	C2032.022583,875.970520 2084.882080,866.800354 2137.405762,855.988098 
	C2178.195801,847.591370 2218.556885,837.077271 2257.449219,821.944702 
	C2274.143066,815.449280 2290.052246,806.941284 2306.340820,799.397034 
	C2309.796143,797.796509 2313.350830,796.410645 2318.340332,794.299500 
	C2318.574219,798.454468 2319.181641,800.995605 2318.781494,803.366821 
	C2312.067139,843.151672 2297.016113,879.169678 2272.343262,911.467651 
	C2246.894775,944.780701 2214.104492,967.632324 2176.110107,983.941040 
	C2172.664795,985.419922 2169.383057,987.280151 2165.332520,989.310425 
	C2169.845215,994.190857 2174.341064,993.356750 2178.467773,993.360291 
	C2201.130127,993.379761 2223.792236,993.214294 2246.454590,993.247131 
	C2251.657715,993.254700 2256.860107,993.791809 2263.614746,994.172668 
	C2262.147217,999.184998 2261.622314,1003.098938 2259.932373,1006.420044 
	C2242.727295,1040.233398 2218.038330,1067.024414 2185.063477,1086.121948 
	C2164.936768,1097.778442 2143.077637,1104.560913 2120.736816,1110.180542 
	C2118.576416,1110.723999 2116.471680,1111.490112 2113.229980,1112.498413 
	C2118.019043,1116.406494 2122.631592,1116.293091 2127.113281,1116.336060 
	C2139.444092,1116.454346 2151.777100,1116.371216 2164.107178,1116.525146 
	C2167.968750,1116.573242 2171.824219,1117.121216 2175.605469,1117.433960 
	C2177.070068,1123.776978 2173.642090,1127.376099 2171.063965,1131.032959 
	C2132.642090,1185.529785 2084.383789,1229.104736 2026.524048,1262.345825 
	C1966.311401,1296.938721 1901.365723,1316.527954 1832.758057,1324.286011 
	C1798.298706,1328.182983 1763.594482,1329.035645 1728.967041,1325.759766 
	C1721.005981,1325.006470 1715.966553,1327.590942 1711.387695,1334.067993 
	C1675.804443,1384.401123 1639.961182,1434.550537 1604.156006,1484.726562 
	C1579.578247,1519.168701 1554.928223,1553.559082 1530.321289,1587.980469 
	C1524.897095,1595.567993 1519.565308,1603.222046 1514.096436,1610.777100 
	C1511.995239,1613.679688 1509.629883,1616.391113 1506.488281,1620.307373 
	C1503.147095,1616.856812 1500.125000,1614.422363 1497.946899,1611.383057 
	C1466.698486,1567.778320 1435.569824,1524.087891 1404.400391,1480.426514 
	C1369.749756,1431.888916 1334.967896,1383.444214 1300.559692,1334.735352 
	C1295.495239,1327.566040 1290.104492,1325.354614 1281.324585,1325.989380 
	C1252.736084,1328.056396 1224.128174,1327.687988 1195.456177,1325.777344 
	C1155.284302,1323.100586 1116.207642,1315.241211 1077.931152,1303.337280 
	C1033.124756,1289.402588 991.508423,1268.847534 952.624023,1242.390869 
	C924.352234,1223.155029 898.805481,1200.964722 876.009033,1175.713013 
	C863.096863,1161.410156 851.792969,1145.643555 839.987244,1130.364380 
	C837.659851,1127.352173 836.350708,1123.553467 833.745728,1118.521362 
	C838.566589,1117.660278 841.900452,1116.607056 845.252014,1116.547363 
	C858.246277,1116.316040 871.249634,1116.557861 884.242004,1116.274902 
	C888.278320,1116.187012 892.290649,1114.994995 896.389832,1113.051392 
	C868.806763,1105.387207 841.844238,1097.243042 817.367676,1081.020508 
M1413.288574,1078.104614 
	C1403.003662,1093.754517 1396.972900,1111.021973 1395.903564,1129.600098 
	C1392.073120,1196.142334 1444.748779,1246.498535 1501.932495,1247.068970 
	C1535.445068,1247.403076 1563.714478,1236.430420 1586.038330,1212.392944 
	C1634.979492,1159.695435 1619.334717,1081.492920 1568.825195,1047.719360 
	C1531.889038,1023.021667 1493.273804,1020.523132 1453.536011,1041.050903 
	C1437.203613,1049.487915 1423.996948,1061.395020 1413.288574,1078.104614 
z"/>
<path fill="#D09797" opacity="1.000000" stroke="none" 
	d="
M1413.669800,1077.493652 
	C1423.996948,1061.395020 1437.203613,1049.487915 1453.536011,1041.050903 
	C1493.273804,1020.523132 1531.889038,1023.021667 1568.825195,1047.719360 
	C1619.334717,1081.492920 1634.979492,1159.695435 1586.038330,1212.392944 
	C1563.714478,1236.430420 1535.445068,1247.403076 1501.932495,1247.068970 
	C1444.748779,1246.498535 1392.073120,1196.142334 1395.903564,1129.600098 
	C1396.972900,1111.021973 1403.003662,1093.754517 1413.669800,1077.493652 
M1519.573853,1243.269897 
	C1522.208496,1242.983276 1524.924927,1243.014282 1527.464600,1242.359375 
	C1546.361450,1237.486206 1563.101074,1228.689575 1577.706299,1215.557129 
	C1590.531860,1204.024658 1599.391113,1189.595093 1604.880127,1173.935547 
	C1610.843994,1156.921021 1613.273682,1139.043457 1609.698242,1120.382446 
	C1606.791260,1105.210815 1601.231079,1091.650879 1593.082642,1078.973511 
	C1582.447754,1062.427734 1568.004761,1050.136597 1550.316895,1041.306152 
	C1539.525635,1035.918823 1528.731689,1031.318970 1516.480713,1031.723511 
	C1500.051758,1032.265991 1483.769775,1030.740479 1467.597900,1037.565063 
	C1434.726440,1051.437012 1413.901489,1075.968140 1403.539673,1108.767334 
	C1397.480835,1127.945679 1398.312378,1148.724976 1404.654297,1168.230957 
	C1407.863525,1178.101685 1413.136108,1187.463745 1418.520996,1196.427979 
	C1427.279907,1211.008911 1439.904175,1221.876709 1454.582397,1230.337158 
	C1474.205688,1241.647949 1495.338623,1245.967773 1519.573853,1243.269897 
z"/>
<path fill="#000000" opacity="1.000000" stroke="none" 
	d="
M1518.709229,1243.503052 
	C1495.338623,1245.967773 1474.205688,1241.647949 1454.582397,1230.337158 
	C1439.904175,1221.876709 1427.279907,1211.008911 1418.520996,1196.427979 
	C1413.136108,1187.463745 1407.863525,1178.101685 1404.654297,1168.230957 
	C1398.312378,1148.724976 1397.480835,1127.945679 1403.539673,1108.767334 
	C1413.901489,1075.968140 1434.726440,1051.437012 1467.597900,1037.565063 
	C1483.769775,1030.740479 1500.051758,1032.265991 1516.480713,1031.723511 
	C1528.731689,1031.318970 1539.525635,1035.918823 1550.316895,1041.306152 
	C1568.004761,1050.136597 1582.447754,1062.427734 1593.082642,1078.973511 
	C1601.231079,1091.650879 1606.791260,1105.210815 1609.698242,1120.382446 
	C1613.273682,1139.043457 1610.843994,1156.921021 1604.880127,1173.935547 
	C1599.391113,1189.595093 1590.531860,1204.024658 1577.706299,1215.557129 
	C1563.101074,1228.689575 1546.361450,1237.486206 1527.464600,1242.359375 
	C1524.924927,1243.014282 1522.208496,1242.983276 1518.709229,1243.503052 
z"/>
</svg>