<svg id="svg" version="1.1" xmlns="http://www.w3.org/2000/svg" xmlns:xlink="http://www.w3.org/1999/xlink" width="400" height="400" viewBox="0, 0, 400,400"><g id="svgg"><path id="path0" d="M65.060 131.607 C 64.479 132.546,67.281 141.661,69.347 145.556 C 73.382 153.162,78.194 157.816,86.523 162.171 C 90.803 164.409,90.782 164.420,81.841 164.548 C 73.737 164.664,73.802 164.627,75.608 168.084 C 79.384 175.313,86.836 181.171,95.100 183.409 C 98.829 184.418,98.179 184.941,93.035 185.071 C 88.071 185.197,88.171 185.094,90.168 188.036 C 104.029 208.460,128.757 220.292,157.617 220.311 L 165.430 220.316 167.969 223.859 C 169.365 225.807,171.475 228.771,172.656 230.446 C 173.838 232.121,175.609 234.613,176.592 235.984 C 177.574 237.355,180.704 241.729,183.545 245.703 C 186.387 249.678,189.290 253.721,189.995 254.688 C 190.701 255.654,192.397 258.027,193.764 259.961 C 200.986 270.175,200.554 269.840,202.588 266.803 C 203.527 265.400,204.726 263.707,210.524 255.592 C 212.338 253.053,215.138 249.131,216.746 246.875 C 218.355 244.619,220.751 241.279,222.072 239.453 C 226.010 234.005,231.027 226.943,231.445 226.259 C 231.660 225.907,232.012 225.413,232.227 225.162 C 232.441 224.911,233.308 223.738,234.152 222.555 L 235.688 220.404 245.481 220.205 C 258.591 219.938,266.649 218.484,276.412 214.623 C 280.627 212.956,281.782 212.396,287.891 209.068 C 296.227 204.526,305.577 196.006,311.072 187.944 C 313.003 185.112,313.095 185.195,307.910 185.071 C 302.503 184.941,302.286 184.582,306.764 183.174 C 315.430 180.447,322.829 174.167,326.173 166.697 C 327.196 164.413,327.324 164.453,318.922 164.453 C 310.145 164.453,310.023 164.373,315.009 161.899 C 325.951 156.468,334.507 144.788,335.779 133.544 C 336.086 130.828,336.194 130.856,332.669 132.733 C 326.354 136.096,315.625 139.586,304.883 141.774 C 303.594 142.036,301.792 142.412,300.879 142.610 C 299.966 142.807,298.472 143.129,297.559 143.325 C 296.646 143.521,293.701 144.060,291.016 144.523 C 285.183 145.528,282.376 146.042,280.273 146.490 C 279.414 146.673,277.568 147.022,276.172 147.266 C 274.775 147.509,272.930 147.858,272.070 148.041 C 271.211 148.224,269.453 148.578,268.164 148.828 C 252.123 151.936,241.182 156.888,239.643 161.736 C 239.259 162.947,238.184 162.615,236.914 160.892 C 225.554 145.487,202.442 139.261,183.789 146.581 C 176.191 149.562,167.569 155.911,164.001 161.151 C 162.786 162.936,162.212 162.821,160.330 160.420 C 156.606 155.670,151.214 152.952,140.820 150.588 C 139.316 150.246,137.295 149.785,136.328 149.565 C 133.671 148.959,131.670 148.543,129.297 148.102 C 125.070 147.317,122.437 146.806,120.898 146.473 C 120.039 146.286,118.105 145.937,116.602 145.696 C 113.304 145.169,111.503 144.832,104.883 143.503 C 102.090 142.942,99.365 142.407,98.828 142.314 C 97.417 142.070,95.381 141.603,89.648 140.210 C 81.247 138.168,73.694 135.497,68.503 132.733 C 65.457 131.112,65.381 131.087,65.060 131.607 M206.836 171.634 C 224.590 179.091,221.026 205.163,202.069 206.498 C 182.819 207.854,174.998 182.546,191.713 172.983 C 195.813 170.637,202.948 170.001,206.836 171.634 " stroke="none" fill="#ea1c1c" fill-rule="evenodd"></path><path id="path1" d="M0.000 200.000 L 0.000 400.000 200.000 400.000 L 400.000 400.000 400.000 200.000 L 400.000 0.000 200.000 0.000 L 0.000 0.000 0.000 200.000 M68.503 132.733 C 73.694 135.497,81.247 138.168,89.648 140.210 C 95.381 141.603,97.417 142.070,98.828 142.314 C 99.365 142.407,102.090 142.942,104.883 143.503 C 111.503 144.832,113.304 145.169,116.602 145.696 C 118.105 145.937,120.039 146.286,120.898 146.473 C 122.437 146.806,125.070 147.317,129.297 148.102 C 131.670 148.543,133.671 148.959,136.328 149.565 C 137.295 149.785,139.316 150.246,140.820 150.588 C 151.214 152.952,156.606 155.670,160.330 160.420 C 162.212 162.821,162.786 162.936,164.001 161.151 C 167.569 155.911,176.191 149.562,183.789 146.581 C 189.710 144.257,193.585 143.560,200.586 143.560 C 206.881 143.560,209.711 144.003,216.016 145.975 C 222.938 148.140,232.592 155.031,236.914 160.892 C 238.184 162.615,239.259 162.947,239.643 161.736 C 241.182 156.888,252.123 151.936,268.164 148.828 C 269.453 148.578,271.211 148.224,272.070 148.041 C 272.930 147.858,274.775 147.509,276.172 147.266 C 277.568 147.022,279.414 146.673,280.273 146.490 C 282.376 146.042,285.183 145.528,291.016 144.523 C 293.701 144.060,296.646 143.521,297.559 143.325 C 298.472 143.129,299.966 142.807,300.879 142.610 C 301.792 142.412,303.594 142.036,304.883 141.774 C 315.625 139.586,326.354 136.096,332.669 132.733 C 336.194 130.856,336.086 130.828,335.779 133.544 C 334.507 144.788,325.951 156.468,315.009 161.899 C 310.023 164.373,310.145 164.453,318.922 164.453 C 327.324 164.453,327.196 164.413,326.173 166.697 C 322.829 174.167,315.430 180.447,306.764 183.174 C 302.286 184.582,302.503 184.941,307.910 185.071 C 313.095 185.195,313.003 185.112,311.072 187.944 C 305.577 196.006,296.227 204.526,287.891 209.068 C 281.782 212.396,280.627 212.956,276.412 214.623 C 266.649 218.484,258.591 219.938,245.481 220.205 L 235.688 220.404 234.152 222.555 C 233.308 223.738,232.441 224.911,232.227 225.162 C 232.012 225.413,231.660 225.907,231.445 226.259 C 231.027 226.943,226.010 234.005,222.072 239.453 C 220.751 241.279,218.355 244.619,216.746 246.875 C 215.138 249.131,212.338 253.053,210.524 255.592 C 204.726 263.707,203.527 265.400,202.588 266.803 C 200.554 269.840,200.986 270.175,193.764 259.961 C 192.397 258.027,190.701 255.654,189.995 254.688 C 189.290 253.721,186.387 249.678,183.545 245.703 C 180.704 241.729,177.574 237.355,176.592 235.984 C 175.609 234.613,173.838 232.121,172.656 230.446 C 171.475 228.771,169.365 225.807,167.969 223.859 L 165.430 220.316 157.617 220.311 C 128.757 220.292,104.029 208.460,90.168 188.036 C 88.171 185.094,88.071 185.197,93.035 185.071 C 98.179 184.941,98.829 184.418,95.100 183.409 C 86.836 181.171,79.384 175.313,75.608 168.084 C 73.802 164.627,73.737 164.664,81.841 164.548 C 90.782 164.420,90.803 164.409,86.523 162.171 C 74.840 156.063,68.506 147.774,65.449 134.592 C 64.551 130.722,64.633 130.673,68.503 132.733 M195.643 171.250 C 184.558 174.452,179.331 187.010,184.808 197.285 C 191.477 209.798,209.923 209.619,216.508 196.978 C 223.693 183.185,210.527 166.951,195.643 171.250 " stroke="none" fill="#040404" fill-rule="evenodd"></path></g></svg>