<?xml version="1.0" encoding="UTF-8"?>
<svg xmlns="http://www.w3.org/2000/svg" xmlns:xlink="http://www.w3.org/1999/xlink" width="1024px" height="1024px" viewBox="0 0 1024 1024" version="1.1">
<g id="surface1">
<path style=" stroke:none;fill-rule:nonzero;fill:rgb(0%,0%,0%);fill-opacity:1;" d="M 526.027344 1025.273438 C 361.949219 1025.273438 198.191406 1025.273438 34.429688 1025.273438 C 34.429688 683.800781 34.429688 342.324219 34.429688 0.851562 C 353.234375 0.851562 672.039062 0.851562 990.84375 0.851562 C 990.84375 342.324219 990.84375 683.800781 990.84375 1025.273438 C 836.011719 1025.273438 681.179688 1025.273438 526.027344 1025.273438 Z M 256.0625 334.914062 C 255.476562 334.585938 254.910156 334.15625 254.300781 333.945312 C 252.101562 333.183594 251.386719 334.210938 251.9375 337.199219 C 252.359375 339.5 252.75 341.8125 253.140625 344.121094 C 253.785156 347.917969 254.046875 351.914062 255.121094 355.476562 C 257.332031 362.777344 259.164062 370.28125 262.234375 377.144531 C 265.0625 383.464844 268.074219 389.566406 271.792969 394.960938 C 279.4375 406.046875 288.5 414.40625 299.234375 419.386719 C 299.71875 419.613281 300.09375 420.253906 300.890625 421.09375 C 299.550781 421.25 298.722656 421.375 297.890625 421.433594 C 295.421875 421.609375 293.011719 420.65625 290.621094 420.453125 C 284.585938 419.9375 278.515625 420.277344 272.457031 420.289062 C 271.265625 420.292969 270.09375 420.417969 269.644531 422.347656 C 278.386719 450.152344 294.128906 466.601562 316.023438 473.289062 C 312.820312 473.578125 309.660156 473.359375 306.523438 473.636719 C 303.335938 473.921875 300.109375 472.019531 296.734375 473.710938 C 297.257812 475.042969 297.585938 476.078125 298.042969 477.003906 C 303.382812 487.839844 309.289062 498.074219 316.257812 507.167969 C 324.601562 518.054688 333.679688 527.691406 343.699219 535.714844 C 352.394531 542.675781 361.5 548.550781 371.003906 553.25 C 377.914062 556.667969 385 559.382812 392.257812 561.1875 C 395.363281 561.960938 398.601562 562.019531 401.601562 563.210938 C 406.25 565.058594 411.019531 564.574219 415.710938 565.0625 C 422.042969 565.726562 428.441406 565.402344 434.808594 565.433594 C 437.460938 565.445312 440.121094 565.417969 442.761719 565.164062 C 444.847656 564.960938 446.050781 566.203125 447.148438 568.414062 C 449.652344 573.46875 452.304688 578.394531 454.949219 583.320312 C 461.15625 594.878906 467.429688 606.371094 473.609375 617.953125 C 477.902344 626 482.03125 634.195312 486.328125 642.238281 C 490.613281 650.261719 495.039062 658.148438 499.347656 666.152344 C 503.285156 673.457031 507.136719 680.84375 511.042969 688.179688 C 511.410156 688.867188 511.851562 689.496094 512.3125 690.074219 C 513.769531 691.898438 514.738281 691.738281 515.90625 689.476562 C 518.890625 683.691406 521.835938 677.871094 524.847656 672.109375 C 527.75 666.554688 530.699219 661.039062 533.65625 655.535156 C 538.078125 647.308594 542.535156 639.113281 546.96875 630.898438 C 552.515625 620.617188 558.078125 610.347656 563.59375 600.039062 C 566.902344 593.84375 570.101562 587.546875 573.414062 581.355469 C 576.101562 576.324219 578.851562 571.347656 581.664062 566.4375 C 582.105469 565.671875 583.035156 564.96875 583.734375 564.980469 C 589.878906 565.050781 596.023438 565.511719 602.164062 565.421875 C 608.398438 565.328125 614.667969 565.222656 620.839844 564.222656 C 626.761719 563.265625 632.558594 561.015625 638.441406 559.585938 C 647.214844 557.457031 655.558594 553.601562 663.71875 548.929688 C 673.25 543.46875 682.226562 536.734375 690.90625 529.148438 C 697.316406 523.542969 703.070312 516.960938 708.730469 510.203125 C 716.082031 501.417969 722.253906 491.203125 727.882812 480.429688 C 728.890625 478.5 730.480469 476.648438 730.132812 473.390625 C 723.554688 473.390625 717.0625 473.390625 710.566406 473.390625 C 721.09375 470.222656 730.707031 464.515625 739.1875 455.648438 C 747.742188 446.703125 753.84375 435.339844 758.140625 421.1875 C 756.183594 420.816406 754.769531 420.378906 753.34375 420.308594 C 744.859375 419.871094 736.410156 420.660156 727.972656 421.753906 C 727.21875 421.851562 726.210938 422.316406 725.851562 420.289062 C 734.757812 415.574219 743.339844 409.9375 750.566406 401.269531 C 757.863281 392.519531 763.59375 382.269531 767.765625 370.347656 C 771.804688 358.804688 774.308594 346.804688 775.605469 334.40625 C 773.695312 333.222656 772.539062 334.339844 771.351562 335.257812 C 767.96875 337.863281 764.726562 340.886719 761.175781 342.992188 C 750.382812 349.40625 739.199219 354.457031 727.746094 358.324219 C 721.117188 360.566406 714.410156 362.429688 707.699219 364.191406 C 696.933594 367.019531 686.132812 369.613281 675.351562 372.320312 C 666.027344 374.664062 656.679688 376.863281 647.386719 379.421875 C 636.21875 382.5 625.03125 385.535156 614.132812 390.117188 C 608.695312 392.40625 603.351562 395.085938 598.691406 399.550781 C 594.230469 403.824219 589.84375 408.320312 587.839844 415.617188 C 587.714844 416.070312 587.324219 416.390625 587.011719 416.832031 C 585.6875 414.378906 584.535156 412.015625 583.207031 409.835938 C 577.707031 400.804688 571.386719 393 564.113281 386.484375 C 556.75 379.894531 548.792969 375.0625 540.402344 371.570312 C 535.332031 369.460938 530.191406 367.121094 524.695312 367.808594 C 524.515625 367.832031 524.324219 367.625 524.128906 367.578125 C 522.402344 367.164062 520.675781 366.414062 518.945312 366.414062 C 513.449219 366.421875 507.980469 366.589844 502.46875 367.492188 C 494.628906 368.773438 487.089844 371.035156 479.839844 375.09375 C 473.980469 378.371094 468.273438 382.121094 463.15625 387.15625 C 458.832031 391.414062 454.691406 396.023438 450.652344 400.761719 C 447.152344 404.871094 444.242188 409.726562 441.785156 415.046875 C 441.445312 415.78125 440.839844 416.300781 440.410156 416.855469 C 439.210938 414.121094 438.371094 411.460938 437.054688 409.332031 C 432.664062 402.253906 427.128906 397.117188 420.789062 393.59375 C 414.160156 389.910156 407.292969 387.152344 400.289062 385.058594 C 392.859375 382.839844 385.414062 380.71875 377.960938 378.664062 C 371.144531 376.785156 364.316406 374.988281 357.472656 373.289062 C 354.050781 372.441406 350.492188 372.335938 347.167969 371.078125 C 343.765625 369.792969 340.257812 369.542969 336.832031 368.527344 C 332.125 367.140625 327.339844 366.144531 322.621094 364.679688 C 315.324219 362.421875 307.929688 360.691406 300.6875 358.1875 C 292.335938 355.304688 284.078125 351.929688 275.835938 348.53125 C 273.125 347.414062 270.511719 345.742188 267.988281 343.988281 C 264.066406 341.253906 260.253906 338.234375 256.0625 334.914062 Z M 256.0625 334.914062 "/>
<path style=" stroke:none;fill-rule:nonzero;fill:rgb(81.568629%,59.215689%,59.215689%);fill-opacity:1;" d="M 256.230469 335.125 C 260.253906 338.234375 264.066406 341.253906 267.988281 343.988281 C 270.511719 345.742188 273.125 347.414062 275.835938 348.53125 C 284.078125 351.929688 292.335938 355.304688 300.6875 358.1875 C 307.929688 360.691406 315.324219 362.421875 322.621094 364.679688 C 327.339844 366.144531 332.125 367.140625 336.832031 368.527344 C 340.257812 369.542969 343.765625 369.792969 347.167969 371.078125 C 350.492188 372.335938 354.050781 372.441406 357.472656 373.289062 C 364.316406 374.988281 371.144531 376.785156 377.960938 378.664062 C 385.414062 380.71875 392.859375 382.839844 400.289062 385.058594 C 407.292969 387.152344 414.160156 389.910156 420.789062 393.59375 C 427.128906 397.117188 432.664062 402.253906 437.054688 409.332031 C 438.371094 411.460938 439.210938 414.121094 440.410156 416.855469 C 440.839844 416.300781 441.445312 415.78125 441.785156 415.046875 C 444.242188 409.726562 447.152344 404.871094 450.652344 400.761719 C 454.691406 396.023438 458.832031 391.414062 463.15625 387.15625 C 468.273438 382.121094 473.980469 378.371094 479.839844 375.09375 C 487.089844 371.035156 494.628906 368.773438 502.46875 367.492188 C 507.980469 366.589844 513.449219 366.421875 518.945312 366.414062 C 520.675781 366.414062 522.402344 367.164062 524.128906 367.578125 C 524.324219 367.625 524.515625 367.832031 524.695312 367.808594 C 530.191406 367.121094 535.332031 369.460938 540.402344 371.570312 C 548.792969 375.0625 556.75 379.894531 564.113281 386.484375 C 571.386719 393 577.707031 400.804688 583.207031 409.835938 C 584.535156 412.015625 585.6875 414.378906 587.011719 416.832031 C 587.324219 416.390625 587.714844 416.070312 587.839844 415.617188 C 589.84375 408.320312 594.230469 403.824219 598.691406 399.550781 C 603.351562 395.085938 608.695312 392.40625 614.132812 390.117188 C 625.03125 385.535156 636.21875 382.5 647.386719 379.421875 C 656.679688 376.863281 666.027344 374.664062 675.351562 372.320312 C 686.132812 369.613281 696.933594 367.019531 707.699219 364.191406 C 714.410156 362.429688 721.117188 360.566406 727.746094 358.324219 C 739.199219 354.457031 750.382812 349.40625 761.175781 342.992188 C 764.726562 340.886719 767.96875 337.863281 771.351562 335.257812 C 772.539062 334.339844 773.695312 333.222656 775.605469 334.40625 C 774.308594 346.804688 771.804688 358.804688 767.765625 370.347656 C 763.59375 382.269531 757.863281 392.519531 750.566406 401.269531 C 743.339844 409.9375 734.757812 415.574219 725.851562 420.289062 C 726.210938 422.316406 727.21875 421.851562 727.972656 421.753906 C 736.410156 420.660156 744.859375 419.871094 753.34375 420.308594 C 754.769531 420.378906 756.183594 420.816406 758.140625 421.1875 C 753.84375 435.339844 747.742188 446.703125 739.1875 455.648438 C 730.707031 464.515625 721.09375 470.222656 710.566406 473.390625 C 717.0625 473.390625 723.554688 473.390625 730.132812 473.390625 C 730.480469 476.648438 728.890625 478.5 727.882812 480.429688 C 722.253906 491.203125 716.082031 501.417969 708.730469 510.203125 C 703.070312 516.960938 697.316406 523.542969 690.90625 529.148438 C 682.226562 536.734375 673.25 543.46875 663.71875 548.929688 C 655.558594 553.601562 647.214844 557.457031 638.441406 559.585938 C 632.558594 561.015625 626.761719 563.265625 620.839844 564.222656 C 614.667969 565.222656 608.398438 565.328125 602.164062 565.421875 C 596.023438 565.511719 589.878906 565.050781 583.734375 564.980469 C 583.035156 564.96875 582.105469 565.671875 581.664062 566.4375 C 578.851562 571.347656 576.101562 576.324219 573.414062 581.355469 C 570.101562 587.546875 566.902344 593.84375 563.59375 600.039062 C 558.078125 610.347656 552.515625 620.617188 546.96875 630.898438 C 542.535156 639.113281 538.078125 647.308594 533.65625 655.535156 C 530.699219 661.039062 527.75 666.554688 524.847656 672.109375 C 521.835938 677.871094 518.890625 683.691406 515.90625 689.476562 C 514.738281 691.738281 513.769531 691.898438 512.3125 690.074219 C 511.851562 689.496094 511.410156 688.867188 511.042969 688.179688 C 507.136719 680.84375 503.285156 673.457031 499.347656 666.152344 C 495.039062 658.148438 490.613281 650.261719 486.328125 642.238281 C 482.03125 634.195312 477.902344 626 473.609375 617.953125 C 467.429688 606.371094 461.15625 594.878906 454.949219 583.320312 C 452.304688 578.394531 449.652344 573.46875 447.148438 568.414062 C 446.050781 566.203125 444.847656 564.960938 442.761719 565.164062 C 440.121094 565.417969 437.460938 565.445312 434.808594 565.433594 C 428.441406 565.402344 422.042969 565.726562 415.710938 565.0625 C 411.019531 564.574219 406.25 565.058594 401.601562 563.210938 C 398.601562 562.019531 395.363281 561.960938 392.257812 561.1875 C 385 559.382812 377.914062 556.667969 371.003906 553.25 C 361.5 548.550781 352.394531 542.675781 343.699219 535.714844 C 333.679688 527.691406 324.601562 518.054688 316.257812 507.167969 C 309.289062 498.074219 303.382812 487.839844 298.042969 477.003906 C 297.585938 476.078125 297.257812 475.042969 296.734375 473.710938 C 300.109375 472.019531 303.335938 473.921875 306.523438 473.636719 C 309.660156 473.359375 312.820312 473.578125 316.023438 473.289062 C 294.128906 466.601562 278.386719 450.152344 269.644531 422.347656 C 270.09375 420.417969 271.265625 420.292969 272.457031 420.289062 C 278.515625 420.277344 284.585938 419.9375 290.621094 420.453125 C 293.011719 420.65625 295.421875 421.609375 297.890625 421.433594 C 298.722656 421.375 299.550781 421.25 300.890625 421.09375 C 300.09375 420.253906 299.71875 419.613281 299.234375 419.386719 C 288.5 414.40625 279.4375 406.046875 271.792969 394.960938 C 268.074219 389.566406 265.0625 383.464844 262.234375 377.144531 C 259.164062 370.28125 257.332031 362.777344 255.121094 355.476562 C 254.046875 351.914062 253.785156 347.917969 253.140625 344.121094 C 252.75 341.8125 252.359375 339.5 251.9375 337.199219 C 251.386719 334.210938 252.101562 333.183594 254.300781 333.945312 C 254.910156 334.15625 255.476562 334.585938 256.230469 335.125 Z M 294.574219 459.671875 C 302.175781 466.40625 310.773438 469.871094 319.566406 473.128906 C 318.257812 473.953125 316.980469 474.460938 315.695312 474.496094 C 311.550781 474.617188 307.40625 474.515625 303.261719 474.613281 C 302.195312 474.640625 301.132812 475.085938 299.59375 475.453125 C 300.425781 477.59375 300.84375 479.207031 301.585938 480.488281 C 305.347656 486.980469 308.953125 493.683594 313.070312 499.761719 C 320.335938 510.496094 328.480469 519.929688 337.492188 528.105469 C 349.890625 539.351562 363.15625 548.089844 377.441406 554.011719 C 389.644531 559.074219 402.101562 562.414062 414.910156 563.550781 C 424.050781 564.363281 433.171875 564.519531 442.285156 563.640625 C 445.085938 563.371094 446.804688 564.3125 448.417969 567.359375 C 459.386719 588.0625 470.476562 608.65625 481.523438 629.289062 C 491.460938 647.847656 501.382812 666.417969 511.34375 684.953125 C 512.039062 686.246094 513.003906 687.28125 514.070312 688.75 C 515.070312 687.082031 515.824219 685.929688 516.492188 684.695312 C 518.238281 681.484375 519.9375 678.230469 521.667969 675.007812 C 529.511719 660.375 537.371094 645.757812 545.207031 631.117188 C 556.621094 609.789062 568.046875 588.472656 579.390625 567.074219 C 580.851562 564.324219 582.457031 563.222656 584.996094 563.542969 C 596.035156 564.9375 607.097656 564.574219 618.085938 562.917969 C 639.957031 559.621094 660.664062 551.292969 679.859375 536.589844 C 698.304688 522.457031 713.6875 503.9375 725.9375 480.769531 C 726.761719 479.214844 727.851562 477.6875 727.386719 474.992188 C 726.179688 474.859375 724.953125 474.625 723.71875 474.605469 C 719.789062 474.539062 715.859375 474.574219 711.925781 474.523438 C 710.496094 474.503906 709.027344 474.554688 707.5 472.894531 C 708.535156 472.464844 709.203125 472.136719 709.894531 471.90625 C 717.015625 469.519531 723.984375 466.636719 730.402344 461.679688 C 740.914062 453.5625 748.785156 442.175781 754.269531 427.800781 C 754.808594 426.390625 754.976562 424.726562 755.445312 422.59375 C 753.289062 422.433594 751.632812 422.207031 749.972656 422.203125 C 742.75 422.1875 735.523438 422.257812 728.296875 422.25 C 726.984375 422.25 725.550781 422.601562 724.109375 420.527344 C 725.402344 419.664062 726.449219 418.875 727.546875 418.246094 C 739.660156 411.3125 750.113281 401.601562 758.226562 387.441406 C 766.09375 373.710938 770.890625 358.402344 773.03125 341.488281 C 773.160156 340.480469 772.964844 339.402344 772.890625 337.636719 C 771.300781 338.53125 770.167969 339.121094 769.066406 339.800781 C 763.871094 343.007812 758.800781 346.625 753.476562 349.386719 C 741.078125 355.820312 728.210938 360.289062 715.207031 363.855469 C 698.464844 368.453125 681.609375 372.351562 664.839844 376.785156 C 651.089844 380.417969 637.375 384.28125 623.679688 388.273438 C 616.609375 390.332031 609.765625 393.472656 603.386719 398.121094 C 597.542969 402.382812 592.371094 407.707031 589 415.632812 C 588.601562 416.574219 588.054688 417.402344 587.3125 418.765625 C 586.242188 417.324219 585.371094 416.199219 584.542969 415.019531 C 580.183594 408.832031 576.207031 402.058594 571.414062 396.546875 C 559.617188 382.984375 545.960938 374.132812 530.566406 370.285156 C 507.589844 364.539062 486.234375 370.21875 466.382812 386.460938 C 457.027344 394.117188 449.238281 404.035156 442.648438 415.695312 C 440.820312 418.925781 440.023438 418.921875 438.558594 415.519531 C 435.445312 408.28125 430.828125 403.152344 425.550781 399.03125 C 419.179688 394.050781 412.257812 390.722656 405.082031 388.640625 C 388.6875 383.875 372.25 379.363281 355.800781 374.921875 C 338.839844 370.34375 321.78125 366.339844 304.878906 361.40625 C 288.355469 356.582031 272.1875 350.09375 257.339844 338.828125 C 256.664062 338.3125 255.808594 338.21875 254.660156 337.789062 C 254.582031 339.328125 254.375 340.421875 254.5 341.4375 C 257.027344 361.804688 263.277344 379.835938 273.882812 394.960938 C 281.09375 405.25 289.832031 412.6875 299.570312 418.085938 C 300.761719 418.746094 301.898438 419.597656 303.0625 420.359375 C 303.011719 420.75 302.960938 421.144531 302.910156 421.535156 C 301.625 421.738281 300.34375 422.109375 299.058594 422.121094 C 291.9375 422.1875 284.820312 422.140625 277.699219 422.191406 C 276.042969 422.203125 274.390625 422.445312 272.90625 422.570312 C 272.007812 425.226562 272.96875 426.945312 273.617188 428.644531 C 278.457031 441.269531 285.289062 451.539062 294.574219 459.671875 Z M 294.574219 459.671875 "/>
<path style=" stroke:none;fill-rule:nonzero;fill:rgb(91.764706%,10.196079%,11.372549%);fill-opacity:1;" d="M 294.375 459.511719 C 285.289062 451.539062 278.457031 441.269531 273.617188 428.644531 C 272.96875 426.945312 272.007812 425.226562 272.90625 422.570312 C 274.390625 422.445312 276.042969 422.203125 277.699219 422.191406 C 284.820312 422.140625 291.9375 422.1875 299.058594 422.121094 C 300.34375 422.109375 301.625 421.738281 302.910156 421.535156 C 302.960938 421.144531 303.011719 420.75 303.0625 420.359375 C 301.898438 419.597656 300.761719 418.746094 299.570312 418.085938 C 289.832031 412.6875 281.09375 405.25 273.882812 394.960938 C 263.277344 379.835938 257.027344 361.804688 254.5 341.4375 C 254.375 340.421875 254.582031 339.328125 254.660156 337.789062 C 255.808594 338.21875 256.664062 338.3125 257.339844 338.828125 C 272.1875 350.09375 288.355469 356.582031 304.878906 361.40625 C 321.78125 366.339844 338.839844 370.34375 355.800781 374.921875 C 372.25 379.363281 388.6875 383.875 405.082031 388.640625 C 412.257812 390.722656 419.179688 394.050781 425.550781 399.03125 C 430.828125 403.152344 435.445312 408.28125 438.558594 415.519531 C 440.023438 418.921875 440.820312 418.925781 442.648438 415.695312 C 449.238281 404.035156 457.027344 394.117188 466.382812 386.460938 C 486.234375 370.21875 507.589844 364.539062 530.566406 370.285156 C 545.960938 374.132812 559.617188 382.984375 571.414062 396.546875 C 576.207031 402.058594 580.183594 408.832031 584.542969 415.019531 C 585.371094 416.199219 586.242188 417.324219 587.3125 418.765625 C 588.054688 417.402344 588.601562 416.574219 589 415.632812 C 592.371094 407.707031 597.542969 402.382812 603.386719 398.121094 C 609.765625 393.472656 616.609375 390.332031 623.679688 388.273438 C 637.375 384.28125 651.089844 380.417969 664.839844 376.785156 C 681.609375 372.351562 698.464844 368.453125 715.207031 363.855469 C 728.210938 360.289062 741.078125 355.820312 753.476562 349.386719 C 758.800781 346.625 763.871094 343.007812 769.066406 339.800781 C 770.167969 339.121094 771.300781 338.53125 772.890625 337.636719 C 772.964844 339.402344 773.160156 340.480469 773.03125 341.488281 C 770.890625 358.402344 766.09375 373.710938 758.226562 387.441406 C 750.113281 401.601562 739.660156 411.3125 727.546875 418.246094 C 726.449219 418.875 725.402344 419.664062 724.109375 420.527344 C 725.550781 422.601562 726.984375 422.25 728.296875 422.25 C 735.523438 422.257812 742.75 422.1875 749.972656 422.203125 C 751.632812 422.207031 753.289062 422.433594 755.445312 422.59375 C 754.976562 424.726562 754.808594 426.390625 754.269531 427.800781 C 748.785156 442.175781 740.914062 453.5625 730.402344 461.679688 C 723.984375 466.636719 717.015625 469.519531 709.894531 471.90625 C 709.203125 472.136719 708.535156 472.464844 707.5 472.894531 C 709.027344 474.554688 710.496094 474.503906 711.925781 474.523438 C 715.859375 474.574219 719.789062 474.539062 723.71875 474.605469 C 724.953125 474.625 726.179688 474.859375 727.386719 474.992188 C 727.851562 477.6875 726.761719 479.214844 725.9375 480.769531 C 713.6875 503.9375 698.304688 522.457031 679.859375 536.589844 C 660.664062 551.292969 639.957031 559.621094 618.085938 562.917969 C 607.097656 564.574219 596.035156 564.9375 584.996094 563.542969 C 582.457031 563.222656 580.851562 564.324219 579.390625 567.074219 C 568.046875 588.472656 556.621094 609.789062 545.207031 631.117188 C 537.371094 645.757812 529.511719 660.375 521.667969 675.007812 C 519.9375 678.230469 518.238281 681.484375 516.492188 684.695312 C 515.824219 685.929688 515.070312 687.082031 514.070312 688.75 C 513.003906 687.28125 512.039062 686.246094 511.34375 684.953125 C 501.382812 666.417969 491.460938 647.847656 481.523438 629.289062 C 470.476562 608.65625 459.386719 588.0625 448.417969 567.359375 C 446.804688 564.3125 445.085938 563.371094 442.285156 563.640625 C 433.171875 564.519531 424.050781 564.363281 414.910156 563.550781 C 402.101562 562.414062 389.644531 559.074219 377.441406 554.011719 C 363.15625 548.089844 349.890625 539.351562 337.492188 528.105469 C 328.480469 519.929688 320.335938 510.496094 313.070312 499.761719 C 308.953125 493.683594 305.347656 486.980469 301.585938 480.488281 C 300.84375 479.207031 300.425781 477.59375 299.59375 475.453125 C 301.132812 475.085938 302.195312 474.640625 303.261719 474.613281 C 307.40625 474.515625 311.550781 474.617188 315.695312 474.496094 C 316.980469 474.460938 318.257812 473.953125 319.566406 473.128906 C 310.773438 469.871094 302.175781 466.40625 294.375 459.511719 Z M 484.355469 458.273438 C 481.078125 464.925781 479.15625 472.265625 478.8125 480.160156 C 477.59375 508.449219 494.386719 529.851562 512.617188 530.09375 C 523.300781 530.238281 532.3125 525.574219 539.429688 515.355469 C 555.03125 492.953125 550.042969 459.714844 533.941406 445.355469 C 522.167969 434.859375 509.855469 433.796875 497.1875 442.523438 C 491.980469 446.109375 487.769531 451.171875 484.355469 458.273438 Z M 484.355469 458.273438 "/>
<path style=" stroke:none;fill-rule:nonzero;fill:rgb(81.568629%,59.215689%,59.215689%);fill-opacity:1;" d="M 484.476562 458.011719 C 487.769531 451.171875 491.980469 446.109375 497.1875 442.523438 C 509.855469 433.796875 522.167969 434.859375 533.941406 445.355469 C 550.042969 459.714844 555.03125 492.953125 539.429688 515.355469 C 532.3125 525.574219 523.300781 530.238281 512.617188 530.09375 C 494.386719 529.851562 477.59375 508.449219 478.8125 480.160156 C 479.15625 472.265625 481.078125 464.925781 484.476562 458.011719 Z M 518.238281 528.480469 C 519.082031 528.359375 519.945312 528.371094 520.753906 528.09375 C 526.78125 526.023438 532.117188 522.28125 536.773438 516.699219 C 540.863281 511.796875 543.6875 505.664062 545.4375 499.007812 C 547.335938 491.777344 548.113281 484.175781 546.972656 476.242188 C 546.046875 469.792969 544.273438 464.03125 541.675781 458.640625 C 538.285156 451.609375 533.679688 446.382812 528.042969 442.628906 C 524.601562 440.339844 521.160156 438.386719 517.253906 438.558594 C 512.015625 438.789062 506.824219 438.140625 501.671875 441.039062 C 491.191406 446.9375 484.550781 457.363281 481.246094 471.304688 C 479.316406 479.457031 479.582031 488.292969 481.601562 496.582031 C 482.625 500.777344 484.308594 504.757812 486.023438 508.570312 C 488.816406 514.765625 492.839844 519.386719 497.519531 522.984375 C 503.777344 527.789062 510.515625 529.625 518.238281 528.480469 Z M 518.238281 528.480469 "/>
<path style=" stroke:none;fill-rule:nonzero;fill:rgb(0%,0%,0%);fill-opacity:1;" d="M 517.964844 528.578125 C 510.515625 529.625 503.777344 527.789062 497.519531 522.984375 C 492.839844 519.386719 488.816406 514.765625 486.023438 508.570312 C 484.308594 504.757812 482.625 500.777344 481.601562 496.582031 C 479.582031 488.292969 479.316406 479.457031 481.246094 471.304688 C 484.550781 457.363281 491.191406 446.9375 501.671875 441.039062 C 506.824219 438.140625 512.015625 438.789062 517.253906 438.558594 C 521.160156 438.386719 524.601562 440.339844 528.042969 442.628906 C 533.679688 446.382812 538.285156 451.609375 541.675781 458.640625 C 544.273438 464.03125 546.046875 469.792969 546.972656 476.242188 C 548.113281 484.175781 547.335938 491.777344 545.4375 499.007812 C 543.6875 505.664062 540.863281 511.796875 536.773438 516.699219 C 532.117188 522.28125 526.78125 526.023438 520.753906 528.09375 C 519.945312 528.371094 519.082031 528.359375 517.964844 528.578125 Z M 517.964844 528.578125 "/>
</g>
</svg>
